<mxfile host="app.diagrams.net" agent="Mozilla/5.0 (X11; Ubuntu; Linux x86_64; rv:131.0) Gecko/20100101 Firefox/131.0" version="24.8.0">
  <diagram name="Seite-1" id="eEK6tJzWUq_Xgrh8uvsy">
    <mxGraphModel dx="1941" dy="563" grid="1" gridSize="10" guides="1" tooltips="1" connect="1" arrows="1" fold="1" page="1" pageScale="1" pageWidth="827" pageHeight="1169" math="0" shadow="0">
      <root>
        <mxCell id="0" />
        <mxCell id="1" parent="0" />
        <mxCell id="IEV2_4xZXgcrZPCh5aBY-7" value="" style="edgeStyle=none;shape=connector;rounded=0;orthogonalLoop=1;jettySize=auto;html=1;strokeColor=default;align=center;verticalAlign=middle;fontFamily=Helvetica;fontSize=11;fontColor=default;labelBackgroundColor=default;endArrow=none;" parent="1" source="IEV2_4xZXgcrZPCh5aBY-1" target="IEV2_4xZXgcrZPCh5aBY-6" edge="1">
          <mxGeometry relative="1" as="geometry" />
        </mxCell>
        <mxCell id="IEV2_4xZXgcrZPCh5aBY-9" value="" style="edgeStyle=none;shape=connector;rounded=0;orthogonalLoop=1;jettySize=auto;html=1;strokeColor=default;align=center;verticalAlign=middle;fontFamily=Helvetica;fontSize=11;fontColor=default;labelBackgroundColor=default;endArrow=none;" parent="1" source="IEV2_4xZXgcrZPCh5aBY-1" target="IEV2_4xZXgcrZPCh5aBY-8" edge="1">
          <mxGeometry relative="1" as="geometry" />
        </mxCell>
        <mxCell id="IEV2_4xZXgcrZPCh5aBY-11" value="" style="edgeStyle=none;shape=connector;rounded=0;orthogonalLoop=1;jettySize=auto;html=1;strokeColor=default;align=center;verticalAlign=middle;fontFamily=Helvetica;fontSize=11;fontColor=default;labelBackgroundColor=default;endArrow=none;" parent="1" source="IEV2_4xZXgcrZPCh5aBY-1" target="IEV2_4xZXgcrZPCh5aBY-10" edge="1">
          <mxGeometry relative="1" as="geometry" />
        </mxCell>
        <mxCell id="IEV2_4xZXgcrZPCh5aBY-13" value="" style="edgeStyle=none;shape=connector;rounded=0;orthogonalLoop=1;jettySize=auto;html=1;strokeColor=default;align=center;verticalAlign=middle;fontFamily=Helvetica;fontSize=11;fontColor=default;labelBackgroundColor=default;endArrow=none;" parent="1" source="IEV2_4xZXgcrZPCh5aBY-1" target="IEV2_4xZXgcrZPCh5aBY-12" edge="1">
          <mxGeometry relative="1" as="geometry" />
        </mxCell>
        <mxCell id="IEV2_4xZXgcrZPCh5aBY-15" value="" style="edgeStyle=none;shape=connector;rounded=0;orthogonalLoop=1;jettySize=auto;html=1;strokeColor=default;align=center;verticalAlign=middle;fontFamily=Helvetica;fontSize=11;fontColor=default;labelBackgroundColor=default;endArrow=none;" parent="1" source="IEV2_4xZXgcrZPCh5aBY-1" target="IEV2_4xZXgcrZPCh5aBY-14" edge="1">
          <mxGeometry relative="1" as="geometry" />
        </mxCell>
        <mxCell id="SEpBGBXVKz4lL8wIs69e-5" value="n" style="edgeLabel;html=1;align=center;verticalAlign=middle;resizable=0;points=[];fontFamily=Helvetica;fontSize=11;fontColor=default;labelBackgroundColor=default;" vertex="1" connectable="0" parent="IEV2_4xZXgcrZPCh5aBY-15">
          <mxGeometry x="-0.1929" y="-4" relative="1" as="geometry">
            <mxPoint x="-83" y="-14" as="offset" />
          </mxGeometry>
        </mxCell>
        <mxCell id="IEV2_4xZXgcrZPCh5aBY-18" value="" style="edgeStyle=none;shape=connector;rounded=0;orthogonalLoop=1;jettySize=auto;html=1;strokeColor=default;align=center;verticalAlign=middle;fontFamily=Helvetica;fontSize=11;fontColor=default;labelBackgroundColor=default;endArrow=none;" parent="1" source="IEV2_4xZXgcrZPCh5aBY-2" target="IEV2_4xZXgcrZPCh5aBY-17" edge="1">
          <mxGeometry relative="1" as="geometry" />
        </mxCell>
        <mxCell id="IEV2_4xZXgcrZPCh5aBY-37" value="" style="edgeStyle=none;shape=connector;rounded=0;orthogonalLoop=1;jettySize=auto;html=1;strokeColor=default;align=center;verticalAlign=middle;fontFamily=Helvetica;fontSize=11;fontColor=default;labelBackgroundColor=default;endArrow=none;" parent="1" source="IEV2_4xZXgcrZPCh5aBY-1" target="IEV2_4xZXgcrZPCh5aBY-36" edge="1">
          <mxGeometry relative="1" as="geometry" />
        </mxCell>
        <mxCell id="IEV2_4xZXgcrZPCh5aBY-1" value="missions" style="rounded=0;whiteSpace=wrap;html=1;" parent="1" vertex="1">
          <mxGeometry y="190" width="120" height="60" as="geometry" />
        </mxCell>
        <mxCell id="IEV2_4xZXgcrZPCh5aBY-16" value="" style="edgeStyle=none;shape=connector;rounded=0;orthogonalLoop=1;jettySize=auto;html=1;strokeColor=default;align=center;verticalAlign=middle;fontFamily=Helvetica;fontSize=11;fontColor=default;labelBackgroundColor=default;endArrow=none;" parent="1" source="IEV2_4xZXgcrZPCh5aBY-2" target="IEV2_4xZXgcrZPCh5aBY-14" edge="1">
          <mxGeometry relative="1" as="geometry" />
        </mxCell>
        <mxCell id="SEpBGBXVKz4lL8wIs69e-6" value="m" style="edgeLabel;html=1;align=center;verticalAlign=middle;resizable=0;points=[];fontFamily=Helvetica;fontSize=11;fontColor=default;labelBackgroundColor=default;" vertex="1" connectable="0" parent="IEV2_4xZXgcrZPCh5aBY-16">
          <mxGeometry x="-0.4133" y="4" relative="1" as="geometry">
            <mxPoint x="48" y="-14" as="offset" />
          </mxGeometry>
        </mxCell>
        <mxCell id="IEV2_4xZXgcrZPCh5aBY-26" value="" style="edgeStyle=none;shape=connector;rounded=0;orthogonalLoop=1;jettySize=auto;html=1;strokeColor=default;align=center;verticalAlign=middle;fontFamily=Helvetica;fontSize=11;fontColor=default;labelBackgroundColor=default;endArrow=none;" parent="1" source="IEV2_4xZXgcrZPCh5aBY-2" target="IEV2_4xZXgcrZPCh5aBY-25" edge="1">
          <mxGeometry relative="1" as="geometry" />
        </mxCell>
        <mxCell id="IEV2_4xZXgcrZPCh5aBY-28" value="" style="edgeStyle=none;shape=connector;rounded=0;orthogonalLoop=1;jettySize=auto;html=1;strokeColor=default;align=center;verticalAlign=middle;fontFamily=Helvetica;fontSize=11;fontColor=default;labelBackgroundColor=default;endArrow=none;" parent="1" source="IEV2_4xZXgcrZPCh5aBY-2" target="IEV2_4xZXgcrZPCh5aBY-27" edge="1">
          <mxGeometry relative="1" as="geometry" />
        </mxCell>
        <mxCell id="IEV2_4xZXgcrZPCh5aBY-30" value="" style="edgeStyle=none;shape=connector;rounded=0;orthogonalLoop=1;jettySize=auto;html=1;strokeColor=default;align=center;verticalAlign=middle;fontFamily=Helvetica;fontSize=11;fontColor=default;labelBackgroundColor=default;endArrow=none;" parent="1" source="IEV2_4xZXgcrZPCh5aBY-2" target="IEV2_4xZXgcrZPCh5aBY-29" edge="1">
          <mxGeometry relative="1" as="geometry" />
        </mxCell>
        <mxCell id="IEV2_4xZXgcrZPCh5aBY-33" value="" style="edgeStyle=none;shape=connector;rounded=0;orthogonalLoop=1;jettySize=auto;html=1;strokeColor=default;align=center;verticalAlign=middle;fontFamily=Helvetica;fontSize=11;fontColor=default;labelBackgroundColor=default;endArrow=none;" parent="1" source="IEV2_4xZXgcrZPCh5aBY-2" target="IEV2_4xZXgcrZPCh5aBY-32" edge="1">
          <mxGeometry relative="1" as="geometry" />
        </mxCell>
        <mxCell id="IEV2_4xZXgcrZPCh5aBY-2" value="files" style="rounded=0;whiteSpace=wrap;html=1;" parent="1" vertex="1">
          <mxGeometry x="850" y="190" width="120" height="60" as="geometry" />
        </mxCell>
        <mxCell id="IEV2_4xZXgcrZPCh5aBY-6" value="name" style="ellipse;whiteSpace=wrap;html=1;rounded=0;" parent="1" vertex="1">
          <mxGeometry x="20" y="20" width="80" height="80" as="geometry" />
        </mxCell>
        <mxCell id="IEV2_4xZXgcrZPCh5aBY-8" value="&lt;u&gt;id&lt;/u&gt;" style="ellipse;whiteSpace=wrap;html=1;rounded=0;" parent="1" vertex="1">
          <mxGeometry x="-90" y="60" width="80" height="80" as="geometry" />
        </mxCell>
        <mxCell id="IEV2_4xZXgcrZPCh5aBY-10" value="location" style="ellipse;whiteSpace=wrap;html=1;rounded=0;" parent="1" vertex="1">
          <mxGeometry x="80" y="300" width="80" height="80" as="geometry" />
        </mxCell>
        <mxCell id="IEV2_4xZXgcrZPCh5aBY-12" value="other" style="ellipse;whiteSpace=wrap;html=1;rounded=0;" parent="1" vertex="1">
          <mxGeometry x="-130" y="310" width="80" height="80" as="geometry" />
        </mxCell>
        <mxCell id="IEV2_4xZXgcrZPCh5aBY-20" value="" style="edgeStyle=none;shape=connector;rounded=0;orthogonalLoop=1;jettySize=auto;html=1;strokeColor=default;align=center;verticalAlign=middle;fontFamily=Helvetica;fontSize=11;fontColor=default;labelBackgroundColor=default;endArrow=none;" parent="1" source="IEV2_4xZXgcrZPCh5aBY-14" target="IEV2_4xZXgcrZPCh5aBY-19" edge="1">
          <mxGeometry relative="1" as="geometry" />
        </mxCell>
        <mxCell id="IEV2_4xZXgcrZPCh5aBY-22" value="" style="edgeStyle=none;shape=connector;rounded=0;orthogonalLoop=1;jettySize=auto;html=1;strokeColor=default;align=center;verticalAlign=middle;fontFamily=Helvetica;fontSize=11;fontColor=default;labelBackgroundColor=default;endArrow=none;" parent="1" source="IEV2_4xZXgcrZPCh5aBY-14" target="IEV2_4xZXgcrZPCh5aBY-21" edge="1">
          <mxGeometry relative="1" as="geometry" />
        </mxCell>
        <mxCell id="IEV2_4xZXgcrZPCh5aBY-24" value="" style="edgeStyle=none;shape=connector;rounded=0;orthogonalLoop=1;jettySize=auto;html=1;strokeColor=default;align=center;verticalAlign=middle;fontFamily=Helvetica;fontSize=11;fontColor=default;labelBackgroundColor=default;endArrow=none;" parent="1" source="IEV2_4xZXgcrZPCh5aBY-14" target="IEV2_4xZXgcrZPCh5aBY-23" edge="1">
          <mxGeometry relative="1" as="geometry" />
        </mxCell>
        <mxCell id="IEV2_4xZXgcrZPCh5aBY-14" value="mission_files" style="rhombus;whiteSpace=wrap;html=1;rounded=0;" parent="1" vertex="1">
          <mxGeometry x="400" y="175" width="150" height="90" as="geometry" />
        </mxCell>
        <mxCell id="IEV2_4xZXgcrZPCh5aBY-17" value="robot" style="ellipse;whiteSpace=wrap;html=1;rounded=0;" parent="1" vertex="1">
          <mxGeometry x="1040" y="180" width="80" height="80" as="geometry" />
        </mxCell>
        <mxCell id="IEV2_4xZXgcrZPCh5aBY-23" value="type" style="ellipse;whiteSpace=wrap;html=1;rounded=0;" parent="1" vertex="1">
          <mxGeometry x="440" y="50" width="80" height="80" as="geometry" />
        </mxCell>
        <mxCell id="IEV2_4xZXgcrZPCh5aBY-25" value="&lt;u&gt;id&lt;/u&gt;" style="ellipse;whiteSpace=wrap;html=1;rounded=0;" parent="1" vertex="1">
          <mxGeometry x="750" y="60" width="80" height="80" as="geometry" />
        </mxCell>
        <mxCell id="IEV2_4xZXgcrZPCh5aBY-27" value="duration" style="ellipse;whiteSpace=wrap;html=1;rounded=0;" parent="1" vertex="1">
          <mxGeometry x="970" y="310" width="80" height="80" as="geometry" />
        </mxCell>
        <mxCell id="IEV2_4xZXgcrZPCh5aBY-29" value="file_path" style="ellipse;whiteSpace=wrap;html=1;rounded=0;" parent="1" vertex="1">
          <mxGeometry x="970" y="70" width="80" height="80" as="geometry" />
        </mxCell>
        <mxCell id="IEV2_4xZXgcrZPCh5aBY-32" value="size" style="ellipse;whiteSpace=wrap;html=1;rounded=0;" parent="1" vertex="1">
          <mxGeometry x="760" y="310" width="80" height="80" as="geometry" />
        </mxCell>
        <mxCell id="IEV2_4xZXgcrZPCh5aBY-36" value="date" style="ellipse;whiteSpace=wrap;html=1;rounded=0;" parent="1" vertex="1">
          <mxGeometry x="150" y="70" width="80" height="80" as="geometry" />
        </mxCell>
        <mxCell id="SEpBGBXVKz4lL8wIs69e-3" value="" style="group" vertex="1" connectable="0" parent="1">
          <mxGeometry x="520" y="310" width="80" height="80" as="geometry" />
        </mxCell>
        <mxCell id="IEV2_4xZXgcrZPCh5aBY-19" value="file_id" style="ellipse;whiteSpace=wrap;html=1;rounded=0;" parent="SEpBGBXVKz4lL8wIs69e-3" vertex="1">
          <mxGeometry width="80" height="80" as="geometry" />
        </mxCell>
        <mxCell id="SEpBGBXVKz4lL8wIs69e-2" value="" style="endArrow=none;dashed=1;html=1;rounded=0;strokeColor=default;align=center;verticalAlign=middle;fontFamily=Helvetica;fontSize=11;fontColor=default;labelBackgroundColor=default;" edge="1" parent="SEpBGBXVKz4lL8wIs69e-3">
          <mxGeometry width="50" height="50" relative="1" as="geometry">
            <mxPoint x="25" y="50" as="sourcePoint" />
            <mxPoint x="55" y="50" as="targetPoint" />
          </mxGeometry>
        </mxCell>
        <mxCell id="SEpBGBXVKz4lL8wIs69e-4" value="" style="group" vertex="1" connectable="0" parent="1">
          <mxGeometry x="360" y="310" width="80" height="80" as="geometry" />
        </mxCell>
        <mxCell id="IEV2_4xZXgcrZPCh5aBY-21" value="mission_id" style="ellipse;whiteSpace=wrap;html=1;rounded=0;" parent="SEpBGBXVKz4lL8wIs69e-4" vertex="1">
          <mxGeometry width="80" height="80" as="geometry" />
        </mxCell>
        <mxCell id="SEpBGBXVKz4lL8wIs69e-1" value="" style="endArrow=none;dashed=1;html=1;rounded=0;strokeColor=default;align=center;verticalAlign=middle;fontFamily=Helvetica;fontSize=11;fontColor=default;labelBackgroundColor=default;" edge="1" parent="SEpBGBXVKz4lL8wIs69e-4">
          <mxGeometry width="50" height="50" relative="1" as="geometry">
            <mxPoint x="10" y="50" as="sourcePoint" />
            <mxPoint x="70" y="50" as="targetPoint" />
          </mxGeometry>
        </mxCell>
      </root>
    </mxGraphModel>
  </diagram>
</mxfile>
